<?xml version="1.0" encoding="UTF-8" standalone="no"?>
<!-- Created with Inkscape (http://www.inkscape.org/) -->

<svg
   width="600.1051"
   height="296.3526"
   viewBox="0 0 147.1016 72.643845"
   version="1.1"
   id="svg1"
   xml:space="preserve"
   inkscape:version="1.3.2 (091e20e, 2023-11-25)"
   sodipodi:docname="La_A.svg"
   inkscape:export-filename="Sol_G.svg"
   inkscape:export-xdpi="96"
   inkscape:export-ydpi="96"
   xmlns:inkscape="http://www.inkscape.org/namespaces/inkscape"
   xmlns:sodipodi="http://sodipodi.sourceforge.net/DTD/sodipodi-0.dtd"
   xmlns="http://www.w3.org/2000/svg"
   xmlns:svg="http://www.w3.org/2000/svg"><sodipodi:namedview
     id="namedview1"
     pagecolor="#ffffff"
     bordercolor="#111111"
     borderopacity="1"
     inkscape:showpageshadow="0"
     inkscape:pageopacity="0"
     inkscape:pagecheckerboard="1"
     inkscape:deskcolor="#d1d1d1"
     inkscape:document-units="mm"
     inkscape:zoom="2.5124388"
     inkscape:cx="309.06225"
     inkscape:cy="180.70092"
     inkscape:window-width="1312"
     inkscape:window-height="449"
     inkscape:window-x="0"
     inkscape:window-y="38"
     inkscape:window-maximized="0"
     inkscape:current-layer="layer3"
     inkscape:export-bgcolor="#ffffff00" /><defs
     id="defs1"><inkscape:path-effect
       effect="bspline"
       id="path-effect6"
       is_visible="true"
       lpeversion="1.3"
       weight="33.333333"
       steps="2"
       helper_size="0"
       apply_no_weight="true"
       apply_with_weight="true"
       only_selected="false"
       uniform="false" /><inkscape:path-effect
       effect="spiro"
       id="path-effect5"
       is_visible="true"
       lpeversion="1" /></defs><g
     inkscape:label="Sheet"
     inkscape:groupmode="layer"
     id="layer1"
     transform="translate(-11.235953,35.883563)"><path
       style="fill:#ffffff;stroke-width:0.245126"
       d="M 25.178721,8.4825417 25.627919,6.4504536"
       id="path5"
       inkscape:path-effect="#path-effect5"
       inkscape:original-d="M 25.178721,8.4825417 C 25.328454,7.805179 25.478187,7.1278163 25.627919,6.4504536" /><path
       style="fill:#ffffff;stroke-width:0.245126"
       d="m 25.282554,8.392523 c 0.202763,-0.012478 0.608289,-0.037434 0.801693,-0.2785261 0.193405,-0.2410925 0.174689,-0.6983021 0.07085,-0.9991057 -0.103834,-0.3008036 -0.292779,-0.445186 -0.51337,-0.5057919 -0.220591,-0.060606 -0.472815,-0.037433 -0.670232,0.063728 -0.197417,0.1011607 -0.340017,0.280301 -0.42246,0.4919788 -0.08244,0.2116778 -0.104726,0.4558798 -0.09626,0.6270048 0.0085,0.1711249 0.04768,0.2691612 0.142603,0.4505366 0.09492,0.1813754 0.245542,0.4460754 0.464796,0.657753 0.219255,0.2116776 0.507128,0.3703191 0.865867,0.4349354 0.358739,0.064616 0.78832,0.035205 1.060603,-0.00891 0.272283,-0.044118 0.387254,-0.1029399 0.569294,-0.2703465 0.18204,-0.1674066 0.431136,-0.4433849 0.574474,-0.677001 0.143338,-0.2336161 0.180911,-0.4248579 0.197144,-0.9756315 0.01623,-0.5507736 0.01113,-1.4610431 -0.08462,-2.4767327 C 28.147192,3.9107216 27.960809,2.7896701 27.802616,1.9321198 27.644423,1.0745694 27.514428,0.48056205 27.343803,-0.10985067 27.173179,-0.70026338 26.961937,-1.2870472 26.797632,-1.8034328 c -0.164304,-0.5163856 -0.281661,-0.9623417 -0.361277,-1.2323659 -0.07962,-0.2700243 -0.12149,-0.3641093 -0.177536,-0.7328841 -0.05605,-0.3687749 -0.126263,-1.0122194 -0.09945,-1.5248179 0.02681,-0.5125985 0.15065,-0.8943243 0.313431,-1.2000966 0.162781,-0.3057724 0.364496,-0.5355746 0.56494,-0.7385716 0.200443,-0.2029969 0.399605,-0.3791784 0.552809,-0.4576951 0.153205,-0.078517 0.260447,-0.059366 0.345348,0.035112 0.0849,0.094477 0.147459,0.264276 0.187037,0.435355 0.03958,0.171079 0.05617,0.3434292 0.04596,0.6645243 -0.01021,0.3210951 -0.04724,0.7909114 -0.166611,1.258827 -0.119374,0.4679156 -0.321088,0.9339008 -0.642183,1.4260739 -0.321095,0.4921732 -0.761547,1.0105031 -1.290746,1.6092822 -0.529198,0.598779 -1.147108,1.27796972 -1.535227,1.85185126 -0.388118,0.57388154 -0.546425,1.04242093 -0.613452,1.60992054 -0.06703,0.5674996 -0.04277,1.2339248 0.0026,1.6814104 0.04532,0.4474855 0.11171,0.6760095 0.224061,0.9064563 0.112351,0.2304468 0.270659,0.4628022 0.570688,0.7455943 0.300029,0.2827921 0.741757,0.616004 1.051359,0.796019 0.309602,0.1800151 0.48706,0.2068249 0.882843,0.2234208 0.395783,0.016596 1.009863,0.022977 1.401174,-0.024263 0.39131,-0.04724 0.559831,-0.1480979 0.779426,-0.3064107 0.219594,-0.1583127 0.490249,-0.3740704 0.709205,-0.6223916 0.218956,-0.2483212 0.386201,-0.5291898 0.492167,-0.833686 0.105967,-0.3044963 0.15065,-0.6325999 0.08362,-1.0143375 C 30.050743,2.3711561 29.872009,1.9358091 29.62305,1.5840757 29.374091,1.2323424 29.054922,0.96424044 28.669993,0.77720264 28.285063,0.59016485 27.834397,0.48420052 27.434786,0.51803475 27.035175,0.55186899 26.686643,0.72549662 26.395553,0.95530515 26.104464,1.1851137 25.870831,1.4710901 25.746353,1.74303 c -0.124477,0.2719399 -0.139797,0.5298275 -0.134052,0.7653805 0.0057,0.2355529 0.03256,0.4487591 0.130862,0.6868661 0.09831,0.2381071 0.268105,0.5011012 0.443653,0.6900543 0.175548,0.1889531 0.356836,0.3038539 0.465994,0.3210877 0.109159,0.017234 0.146182,-0.063196 0.05873,-0.183207 -0.08745,-0.1200111 -0.299383,-0.2795955 -0.444927,-0.5253631 -0.145545,-0.2457675 -0.224698,-0.5777029 -0.244487,-0.86241 -0.01979,-0.284707 0.01979,-0.5221689 0.208105,-0.7328259 0.188317,-0.210657 0.525358,-0.3944979 0.85858,-0.4921658 0.333222,-0.097668 0.662604,-0.1091583 0.988166,-0.013403 0.325563,0.095755 0.647284,0.2987458 0.89305,0.5247249 0.245767,0.2259792 0.415564,0.4749294 0.50621,0.8317724 0.09064,0.3568429 0.102135,0.821551 0.04468,1.1413659 -0.05745,0.3198149 -0.183844,0.49472 -0.362584,0.6811201 C 28.97959,4.7624268 28.748513,4.9603105 28.439547,5.1020252 28.130582,5.2437399 27.74375,5.3292774 27.330733,5.3458739 26.917716,5.3624705 26.47854,5.3101264 26.118509,5.1677721 25.758477,5.0254178 25.477608,4.7930629 25.231842,4.5415508 24.986075,4.2900387 24.775423,4.0193831 24.624771,3.8036186 24.474119,3.5878541 24.383476,3.4269937 24.341345,3.0944085 c -0.04213,-0.3325852 -0.03575,-0.8368713 0.02234,-1.2562703 0.05809,-0.419399 0.167885,-0.7538886 0.357478,-1.09668574 0.189592,-0.34279711 0.45897,-0.69388263 0.893054,-1.20393161 0.434084,-0.51004898 1.032844,-1.17902595 1.47267,-1.71907385 0.439826,-0.5400478 0.720694,-0.9511368 0.956247,-1.3858573 0.235553,-0.4347205 0.425779,-0.893048 0.523446,-1.3022337 0.09767,-0.4091857 0.102774,-0.7692079 0.06958,-1.1464773 -0.0332,-0.3772694 -0.104689,-0.7717607 -0.216401,-1.1483911 -0.111713,-0.3766304 -0.263638,-0.7353754 -0.436632,-1.0398704 -0.172995,-0.304495 -0.36705,-0.5547246 -0.497914,-0.67665 -0.130863,-0.1219254 -0.198525,-0.1155444 -0.305769,-0.030005 -0.107244,0.08554 -0.254061,0.2502303 -0.356836,0.3740719 -0.102776,0.1238417 -0.161502,0.2068239 -0.236827,0.2898092 -0.07532,0.082985 -0.167249,0.1659718 -0.243851,0.2885361 -0.0766,0.1225643 -0.137883,0.284704 -0.210018,0.4302494 -0.07213,0.1455455 -0.155118,0.2744882 -0.202994,0.5125956 -0.04788,0.2381075 -0.06064,0.5853631 -0.06256,0.9543331 -0.0019,0.3689701 0.007,0.7596339 0.03128,1.2013774 0.02426,0.4417435 0.06383,0.9345385 0.194698,1.5505544 0.130865,0.6160158 0.353006,1.3552091 0.550896,1.9871807 0.19789,0.63197149 0.371517,1.1566843 0.513232,1.69162722 0.141715,0.53494291 0.251509,1.08008438 0.346624,1.63736918 0.09511,0.5572848 0.175546,1.1266822 0.270023,1.8154702 0.09448,0.6887879 0.202994,1.4969208 0.261083,2.1454899 0.05809,0.6485692 0.06575,1.1375345 0.02362,1.4867137 -0.04213,0.3491792 -0.134053,0.5585556 -0.277684,0.7845337 -0.143631,0.225978 -0.338962,0.4685458 -0.512595,0.6230268 -0.173632,0.154481 -0.325556,0.2208681 -0.506212,0.2610845 -0.180655,0.040216 -0.390029,0.05426 -0.552807,0.051707 -0.162777,-0.00255 -0.278955,-0.021704 -0.411733,-0.074049 -0.132779,-0.052345 -0.28215,-0.1378824 -0.408544,-0.22406 -0.126394,-0.086178 -0.229805,-0.1729918 -0.277383,-0.2517003 -0.04758,-0.078709 -0.03932,-0.1492975 -0.03519,-0.1845959 0.0041,-0.035298 0.0041,-0.035286 0.20689,-0.047764 z"
       id="path6"
       inkscape:path-effect="#path-effect6"
       inkscape:original-d="m 25.079791,8.4050008 c 0.405526,-0.024956 0.811052,-0.04991 1.216578,-0.074867 -0.01872,-0.4572293 -0.03743,-0.9144391 -0.05615,-1.3716587 -0.188952,-0.1443868 -0.377897,-0.2887687 -0.566845,-0.4331555 -0.252234,0.023165 -0.504457,0.046346 -0.756685,0.06952 -0.142606,0.1791482 -0.285205,0.358289 -0.427808,0.5374323 -0.02228,0.2442121 -0.04456,0.4884144 -0.06685,0.7326215 0.03922,0.098041 0.07843,0.1960791 0.117647,0.2941174 0.150627,0.264712 0.301248,0.5294117 0.451872,0.7941188 0.287885,0.1586483 0.575758,0.3172892 0.863637,0.475935 0.429599,-0.029413 0.85918,-0.058823 1.288771,-0.088236 0.114975,-0.058823 0.229946,-0.117646 0.34492,-0.1764689 0.249106,-0.2759903 0.498202,-0.5519683 0.747304,-0.8279537 0.03757,-0.1912476 0.07515,-0.3824879 0.11272,-0.573733 -0.0051,-0.9103028 -0.01021,-1.8205723 -0.01532,-2.730859 C 28.147195,3.9107211 27.960811,2.7896698 27.774423,1.6685989 27.644423,1.0745694 27.514428,0.48056194 27.38443,-0.11345532 27.173179,-0.70026341 26.961936,-1.287047 26.75069,-1.8738428 c -0.117362,-0.4459756 -0.234719,-0.8919316 -0.352078,-1.3378975 -0.04187,-0.094084 -0.08375,-0.1881663 -0.125619,-0.2822483 -0.07022,-0.6434691 -0.140437,-1.2869136 -0.210656,-1.9303704 0.123842,-0.3817402 0.24768,-0.7634658 0.37152,-1.1452011 0.201723,-0.2298085 0.403437,-0.459612 0.605156,-0.689418 0.199169,-0.1761871 0.39833,-0.3523692 0.597495,-0.5285538 0.107245,0.019144 0.214486,0.038301 0.321729,0.057453 0.06256,0.169804 0.125116,0.339603 0.187675,0.5094021 0.0166,0.1723582 0.03319,0.344709 0.04979,0.5170647 -0.03703,0.4698338 -0.07405,0.9396504 -0.111073,1.4094768 -0.201723,0.4660049 -0.403437,0.9319902 -0.605156,1.3979853 -0.44047,0.5183516 -0.880923,1.0366812 -1.321384,1.5550206 -0.617936,0.6792183 -1.235846,1.35840959 -1.853769,2.03761317 -0.158314,0.46855912 -0.316621,0.93709862 -0.474932,1.40564793 0.02426,0.6664497 0.04852,1.3328748 0.07277,1.9993122 0.06639,0.2285338 0.132777,0.4570578 0.199165,0.6855867 0.158314,0.2323651 0.316622,0.4647204 0.474932,0.6970782 0.441747,0.3332273 0.883477,0.6664374 1.325215,0.9996573 0.177465,0.026812 0.354923,0.053621 0.532384,0.080431 0.614105,0.00637 1.228185,0.012771 1.842278,0.019144 C 28.44466,5.482479 28.613181,5.3816217 28.781705,5.280762 29.052371,5.0649969 29.323026,4.8492391 29.593686,4.6334763 29.760937,4.3525958 29.928182,4.0717275 30.095429,3.7908543 30.140119,3.4627355 30.184799,3.1346314 30.229483,2.8065174 30.050744,2.3711557 29.87201,1.9358087 29.693272,1.5004544 29.374091,1.2323425 29.054922,0.96424045 28.735747,0.69613345 28.285063,0.5901653 27.834397,0.48420206 27.383722,0.37823392 27.035175,0.55186921 26.686643,0.72549714 26.338104,0.89912752 26.104464,1.185114 25.870832,1.4710908 25.637196,1.7570699 c -0.01532,0.2579 -0.03064,0.5157876 -0.04596,0.7736802 0.02681,0.2132134 0.05362,0.4264195 0.08043,0.6396279 0.169804,0.263006 0.339602,0.5259996 0.509403,0.7890006 0.181295,0.1149055 0.362583,0.229806 0.543874,0.344709 0.03703,-0.080433 0.07405,-0.1608642 0.111073,-0.2412975 C 26.624081,3.9032006 26.412153,3.7436159 26.200221,3.5840288 26.121064,3.2520811 26.04191,2.9201457 25.962755,2.5882028 c 0.03958,-0.2374711 0.07916,-0.4749324 0.118733,-0.7123986 0.337055,-0.1838497 0.674097,-0.3676896 1.011146,-0.5515344 0.329395,-0.011496 0.658777,-0.022968 0.988166,-0.034472 0.321735,0.2030014 0.643457,0.4059906 0.965185,0.6089871 0.169805,0.2489627 0.339602,0.497913 0.509403,0.7468683 0.01149,0.4647303 0.02298,0.9294384 0.03447,1.3941564 -0.126395,0.1749124 -0.252786,0.3498175 -0.37918,0.5247249 -0.231087,0.197893 -0.462165,0.3957762 -0.693248,0.5936643 -0.386848,0.085542 -0.77368,0.1710786 -1.16052,0.2566179 C 26.917716,5.3624697 26.47854,5.3101282 26.039356,5.2577814 25.758476,5.0254188 25.477608,4.7930634 25.196734,4.5607032 24.986074,4.2900396 24.775423,4.0193832 24.564767,3.748722 24.474117,3.5878554 24.383476,3.4269936 24.29283,3.2661294 c 0.0064,-0.5043059 0.01277,-1.0085922 0.01915,-1.5128883 0.109798,-0.3345019 0.219592,-0.6689916 0.329388,-1.00348615 0.269389,-0.35109945 0.538768,-0.70218419 0.808151,-1.05327873 0.598785,-0.66900387 1.197545,-1.33798082 1.796317,-2.00697242 0.28088,-0.4111039 0.561748,-0.8221931 0.842622,-1.2332922 0.190232,-0.4583422 0.380457,-0.9166698 0.570685,-1.3750047 0.0051,-0.3600367 0.01021,-0.7200588 0.01532,-1.0800882 -0.0715,-0.3945088 -0.142991,-0.7890006 -0.214486,-1.1835021 -0.15193,-0.3587596 -0.303854,-0.7175046 -0.455782,-1.0762569 -0.194062,-0.2502372 -0.388117,-0.5004672 -0.582175,-0.7506996 -0.06767,0.00637 -0.13533,0.012771 -0.202995,0.019144 -0.146824,0.164698 -0.293641,0.3293886 -0.440462,0.4940841 -0.05873,0.082988 -0.117456,0.1659702 -0.176184,0.2489553 -0.09192,0.082988 -0.183845,0.1659727 -0.275768,0.2489577 -0.06128,0.1621438 -0.122563,0.3242827 -0.183844,0.4864215 -0.08299,0.1289512 -0.165971,0.2578951 -0.248957,0.3868413 -0.01277,0.3472682 -0.02553,0.694524 -0.0383,1.0417872 0.0089,0.3906776 0.01788,0.7813404 0.02681,1.1720106 0.03958,0.4928169 0.07916,0.9856116 0.118733,1.4784186 0.22215,0.7392253 0.444291,1.4784186 0.666437,2.2176267 0.173635,0.52473475 0.347263,1.04944742 0.520894,1.57417234 0.109798,0.54516112 0.219592,1.09030266 0.329388,1.63545146 0.08043,0.5694213 0.160865,1.1388181 0.241297,1.7082246 0.108521,0.8081695 0.217039,1.6163022 0.325558,2.4244545 0.0077,0.4889855 0.01532,0.9779514 0.02298,1.4669271 -0.09192,0.2093845 -0.183845,0.4187593 -0.275767,0.6281364 -0.195339,0.2425796 -0.390671,0.4851468 -0.586006,0.727719 -0.15193,0.06639 -0.303854,0.1327776 -0.455782,0.1991652 -0.209383,0.014046 -0.418757,0.028089 -0.628136,0.042132 -0.116177,-0.019144 -0.232354,-0.0383 -0.348534,-0.057452 C 25.664005,9.0482983 25.514634,8.9627615 25.36526,8.8772221 25.261846,8.7904057 25.158435,8.7035918 25.055022,8.6167753 c 0.0083,-0.070596 0.01651,-0.1411903 0.02477,-0.2117867 z"
       transform="matrix(3.9595135,0,0,3.9595135,-74.315333,-0.35054097)" /><rect
       style="fill:#ffffff;stroke-width:0.245903"
       id="rect6"
       width="147.04558"
       height="1.7333055"
       x="11.257574"
       y="-19.212315" /><rect
       style="fill:#ffffff;stroke-width:0.245912"
       id="rect6-4"
       width="147.05611"
       height="1.7333055"
       x="11.26265"
       y="-9.0016336" /><rect
       style="fill:#ffffff;stroke-width:0.245907"
       id="rect6-6"
       width="147.05083"
       height="1.7333055"
       x="11.246389"
       y="0.58303469" /><rect
       style="fill:#ffffff;stroke-width:0.245894"
       id="rect6-1"
       width="147.03506"
       height="1.7333055"
       x="11.251234"
       y="10.701122" /><rect
       style="fill:#ffffff;stroke-width:0.24595"
       id="rect6-8"
       width="147.10161"
       height="1.7333055"
       x="11.235953"
       y="20.389774" /><rect
       style="display:none;fill:#ffffff;stroke-width:0.103834"
       id="Additional_line"
       width="26.218422"
       height="1.7333055"
       x="78.759384"
       y="29.566021" /></g><g
     inkscape:groupmode="layer"
     id="layer3"
     inkscape:label="CrotchetUp"
     style="display:inline"
     transform="matrix(0.8520635,0,0,0.91252314,37.709905,-13.955723)"><ellipse
       style="fill:#ffffff;stroke-width:0.279454"
       id="path3"
       cx="54.111652"
       cy="62.139538"
       rx="6.9248209"
       ry="6.4958496" /><rect
       style="fill:#ffffff;stroke-width:0.291607"
       id="rect3"
       width="1.5933216"
       height="29.660294"
       x="59.320587"
       y="35.17564" /></g></svg>
